# xmcd CD database file
#
# Track frame offsets:
#	150
#	24588
#	56189
#	62448
#	68580
#	99800
#	105799
#	126362
#	152369
#	175680
#	188763
#	195432
#	208315
#	234460
#
# Disc length: 3540 seconds
#
# Revision: 0
# Processed by: cddbd v1.5.2PL0 Copyright (c) Steve Scherf et al.
# Submitted via: CDex 1.51
#
DISCID=ac0dd20e
DTITLE=Christian Finger - Merge into beauty
DYEAR=2006
DGENRE=Jazz
TTITLE0=Nu Drance
TTITLE1=End of an Era for Elvin Jones
TTITLE2=String Interlude I
TTITLE3=Halfway Till Dawn I for Billy Strayhorn
TTITLE4=Alone in Cologne
TTITLE5=String Interlude II
TTITLE6=Heartsong
TTITLE7=You Make Nice Noise
TTITLE8=Amaya's Dream
TTITLE9=Halfway till Dawn II
TTITLE10=String Interlude III My Little Prayer
TTITLE11=My Little Prayer
TTITLE12=Falling In Love
TTITLE13=The Peacocks
EXTD=YEAR: 2006
EXTT0=
EXTT1=
EXTT2=
EXTT3=
EXTT4=
EXTT5=
EXTT6=
EXTT7=
EXTT8=
EXTT9=
EXTT10=
EXTT11=
EXTT12=
EXTT13=
PLAYORDER=
